<mxfile host="app.diagrams.net" agent="Mozilla/5.0 (Windows NT 10.0; Win64; x64) AppleWebKit/537.36 (KHTML, like Gecko) Chrome/134.0.0.0 Safari/537.36 Edg/134.0.0.0" version="26.1.0">
  <diagram name="第 1 页" id="8xDF894zxbV6nEApdhz7">
    <mxGraphModel dx="1011" dy="640" grid="1" gridSize="10" guides="1" tooltips="1" connect="1" arrows="1" fold="1" page="1" pageScale="1" pageWidth="827" pageHeight="1169" math="0" shadow="0">
      <root>
        <mxCell id="0" />
        <mxCell id="1" parent="0" />
        <mxCell id="RqdF9hzzgFcd3M00oREZ-13" value="" style="rounded=0;whiteSpace=wrap;html=1;fillColor=light-dark(#E6EEF9,#1D293B);strokeColor=#6c8ebf;opacity=80;gradientColor=none;" vertex="1" parent="1">
          <mxGeometry x="60" y="150" width="750" height="290" as="geometry" />
        </mxCell>
        <mxCell id="RqdF9hzzgFcd3M00oREZ-3" value="" style="rounded=1;whiteSpace=wrap;html=1;strokeColor=#0066CC;" vertex="1" parent="1">
          <mxGeometry x="100" y="223" width="160" height="200" as="geometry" />
        </mxCell>
        <mxCell id="RqdF9hzzgFcd3M00oREZ-2" value="" style="rounded=1;whiteSpace=wrap;html=1;strokeColor=#0066CC;" vertex="1" parent="1">
          <mxGeometry x="95" y="215" width="160" height="200" as="geometry" />
        </mxCell>
        <mxCell id="RqdF9hzzgFcd3M00oREZ-1" value="&lt;div&gt;&lt;b&gt;&lt;font style=&quot;font-size: 16px;&quot;&gt;基本模块&lt;/font&gt;&lt;/b&gt;&lt;/div&gt;&lt;div&gt;&lt;font style=&quot;font-size: 16px;&quot;&gt;&lt;br&gt;&lt;/font&gt;&lt;/div&gt;&lt;div&gt;&lt;font style=&quot;font-size: 16px;&quot;&gt;&lt;br&gt;&lt;/font&gt;&lt;/div&gt;&lt;div&gt;&lt;font style=&quot;font-size: 16px;&quot;&gt;&lt;br&gt;&lt;/font&gt;&lt;/div&gt;&lt;div&gt;&lt;font style=&quot;font-size: 16px;&quot;&gt;&lt;br&gt;&lt;/font&gt;&lt;/div&gt;&lt;div&gt;&lt;font style=&quot;font-size: 16px;&quot;&gt;&lt;br&gt;&lt;/font&gt;&lt;/div&gt;&lt;div&gt;&lt;font style=&quot;font-size: 16px;&quot;&gt;&lt;br&gt;&lt;/font&gt;&lt;/div&gt;&lt;div&gt;&lt;font style=&quot;font-size: 16px;&quot;&gt;&lt;br&gt;&lt;/font&gt;&lt;/div&gt;&lt;div&gt;&lt;font style=&quot;font-size: 16px;&quot;&gt;&lt;br&gt;&lt;/font&gt;&lt;/div&gt;&lt;div&gt;&lt;br&gt;&lt;/div&gt;" style="rounded=1;whiteSpace=wrap;html=1;strokeColor=light-dark(#0066CC,#182E44);" vertex="1" parent="1">
          <mxGeometry x="90" y="207" width="160" height="200" as="geometry" />
        </mxCell>
        <mxCell id="RqdF9hzzgFcd3M00oREZ-6" value="" style="edgeStyle=orthogonalEdgeStyle;rounded=0;orthogonalLoop=1;jettySize=auto;html=1;" edge="1" parent="1" source="RqdF9hzzgFcd3M00oREZ-4" target="RqdF9hzzgFcd3M00oREZ-5">
          <mxGeometry relative="1" as="geometry" />
        </mxCell>
        <mxCell id="RqdF9hzzgFcd3M00oREZ-4" value="&lt;b&gt;Conv1&lt;/b&gt;" style="rounded=1;whiteSpace=wrap;html=1;fillColor=#dae8fc;strokeColor=#6c8ebf;" vertex="1" parent="1">
          <mxGeometry x="130" y="240" width="80" height="20" as="geometry" />
        </mxCell>
        <mxCell id="RqdF9hzzgFcd3M00oREZ-8" value="" style="edgeStyle=orthogonalEdgeStyle;rounded=0;orthogonalLoop=1;jettySize=auto;html=1;" edge="1" parent="1" source="RqdF9hzzgFcd3M00oREZ-5" target="RqdF9hzzgFcd3M00oREZ-7">
          <mxGeometry relative="1" as="geometry" />
        </mxCell>
        <mxCell id="RqdF9hzzgFcd3M00oREZ-5" value="&lt;b&gt;BN1&lt;/b&gt;" style="rounded=1;whiteSpace=wrap;html=1;fillColor=#dae8fc;strokeColor=#6c8ebf;" vertex="1" parent="1">
          <mxGeometry x="130" y="275" width="80" height="20" as="geometry" />
        </mxCell>
        <mxCell id="RqdF9hzzgFcd3M00oREZ-10" value="" style="edgeStyle=orthogonalEdgeStyle;rounded=0;orthogonalLoop=1;jettySize=auto;html=1;" edge="1" parent="1" source="RqdF9hzzgFcd3M00oREZ-7" target="RqdF9hzzgFcd3M00oREZ-9">
          <mxGeometry relative="1" as="geometry" />
        </mxCell>
        <mxCell id="RqdF9hzzgFcd3M00oREZ-7" value="&lt;b&gt;ReLU&lt;/b&gt;" style="rounded=1;whiteSpace=wrap;html=1;fillColor=#dae8fc;strokeColor=#6c8ebf;" vertex="1" parent="1">
          <mxGeometry x="130" y="310" width="80" height="20" as="geometry" />
        </mxCell>
        <mxCell id="RqdF9hzzgFcd3M00oREZ-12" value="" style="edgeStyle=orthogonalEdgeStyle;rounded=0;orthogonalLoop=1;jettySize=auto;html=1;" edge="1" parent="1" source="RqdF9hzzgFcd3M00oREZ-9" target="RqdF9hzzgFcd3M00oREZ-11">
          <mxGeometry relative="1" as="geometry" />
        </mxCell>
        <mxCell id="RqdF9hzzgFcd3M00oREZ-9" value="&lt;b&gt;Conv2&lt;/b&gt;" style="rounded=1;whiteSpace=wrap;html=1;fillColor=#dae8fc;strokeColor=#6c8ebf;" vertex="1" parent="1">
          <mxGeometry x="130" y="345" width="80" height="20" as="geometry" />
        </mxCell>
        <mxCell id="RqdF9hzzgFcd3M00oREZ-11" value="&lt;b&gt;BN2&lt;/b&gt;" style="rounded=1;whiteSpace=wrap;html=1;fillColor=#dae8fc;strokeColor=#6c8ebf;" vertex="1" parent="1">
          <mxGeometry x="130" y="380" width="80" height="20" as="geometry" />
        </mxCell>
        <mxCell id="RqdF9hzzgFcd3M00oREZ-16" value="" style="rounded=1;whiteSpace=wrap;html=1;strokeColor=#0066CC;" vertex="1" parent="1">
          <mxGeometry x="300" y="220" width="320" height="200" as="geometry" />
        </mxCell>
        <mxCell id="RqdF9hzzgFcd3M00oREZ-15" value="&lt;b&gt;&lt;font style=&quot;font-size: 16px;&quot;&gt;多尺度模块&lt;/font&gt;&lt;/b&gt;&lt;div&gt;&lt;b&gt;&lt;font style=&quot;font-size: 16px;&quot;&gt;&lt;br&gt;&lt;/font&gt;&lt;/b&gt;&lt;/div&gt;&lt;div&gt;&lt;b&gt;&lt;font style=&quot;font-size: 16px;&quot;&gt;&lt;br&gt;&lt;/font&gt;&lt;/b&gt;&lt;/div&gt;&lt;div&gt;&lt;b&gt;&lt;font style=&quot;font-size: 16px;&quot;&gt;&lt;br&gt;&lt;/font&gt;&lt;/b&gt;&lt;/div&gt;&lt;div&gt;&lt;b&gt;&lt;font style=&quot;font-size: 16px;&quot;&gt;&lt;br&gt;&lt;/font&gt;&lt;/b&gt;&lt;/div&gt;&lt;div&gt;&lt;b&gt;&lt;font style=&quot;font-size: 16px;&quot;&gt;&lt;br&gt;&lt;/font&gt;&lt;/b&gt;&lt;/div&gt;&lt;div&gt;&lt;b&gt;&lt;font style=&quot;font-size: 16px;&quot;&gt;&lt;br&gt;&lt;/font&gt;&lt;/b&gt;&lt;/div&gt;&lt;div&gt;&lt;b&gt;&lt;font style=&quot;font-size: 16px;&quot;&gt;&lt;br&gt;&lt;/font&gt;&lt;/b&gt;&lt;/div&gt;&lt;div&gt;&lt;b&gt;&lt;font style=&quot;font-size: 16px;&quot;&gt;&lt;br&gt;&lt;/font&gt;&lt;/b&gt;&lt;/div&gt;&lt;div&gt;&lt;b&gt;&lt;font style=&quot;font-size: 16px;&quot;&gt;&lt;br&gt;&lt;/font&gt;&lt;/b&gt;&lt;/div&gt;" style="rounded=1;whiteSpace=wrap;html=1;strokeColor=#0066CC;" vertex="1" parent="1">
          <mxGeometry x="290" y="212.5" width="320" height="200" as="geometry" />
        </mxCell>
        <mxCell id="RqdF9hzzgFcd3M00oREZ-14" value="" style="html=1;shadow=0;dashed=0;align=center;verticalAlign=middle;shape=mxgraph.arrows2.arrow;dy=0.51;dx=31.67;notch=15;strokeColor=#0066CC;" vertex="1" parent="1">
          <mxGeometry x="220" y="300" width="90" height="30" as="geometry" />
        </mxCell>
        <mxCell id="RqdF9hzzgFcd3M00oREZ-17" value="&lt;font style=&quot;font-size: 16px;&quot;&gt;&lt;b&gt;×m&lt;/b&gt;&lt;/font&gt;" style="rounded=0;whiteSpace=wrap;html=1;opacity=0;fontColor=#0066CC;" vertex="1" parent="1">
          <mxGeometry x="240" y="193" width="40" height="30" as="geometry" />
        </mxCell>
        <mxCell id="RqdF9hzzgFcd3M00oREZ-18" value="&lt;font style=&quot;font-size: 20px;&quot;&gt;&lt;b style=&quot;&quot;&gt;ScorER 结构&lt;/b&gt;&lt;/font&gt;" style="rounded=0;whiteSpace=wrap;html=1;opacity=0;fontColor=#0066CC;" vertex="1" parent="1">
          <mxGeometry x="340" y="160" width="190" height="30" as="geometry" />
        </mxCell>
        <mxCell id="RqdF9hzzgFcd3M00oREZ-23" value="" style="edgeStyle=orthogonalEdgeStyle;rounded=0;orthogonalLoop=1;jettySize=auto;html=1;" edge="1" parent="1" source="RqdF9hzzgFcd3M00oREZ-21" target="RqdF9hzzgFcd3M00oREZ-22">
          <mxGeometry relative="1" as="geometry">
            <Array as="points">
              <mxPoint x="450" y="280" />
              <mxPoint x="345" y="280" />
            </Array>
          </mxGeometry>
        </mxCell>
        <mxCell id="RqdF9hzzgFcd3M00oREZ-25" value="" style="edgeStyle=orthogonalEdgeStyle;rounded=0;orthogonalLoop=1;jettySize=auto;html=1;" edge="1" parent="1" source="RqdF9hzzgFcd3M00oREZ-21" target="RqdF9hzzgFcd3M00oREZ-24">
          <mxGeometry relative="1" as="geometry" />
        </mxCell>
        <mxCell id="RqdF9hzzgFcd3M00oREZ-26" value="" style="edgeStyle=orthogonalEdgeStyle;rounded=0;orthogonalLoop=1;jettySize=auto;html=1;" edge="1" parent="1" source="RqdF9hzzgFcd3M00oREZ-21" target="RqdF9hzzgFcd3M00oREZ-24">
          <mxGeometry relative="1" as="geometry" />
        </mxCell>
        <mxCell id="RqdF9hzzgFcd3M00oREZ-27" value="" style="edgeStyle=orthogonalEdgeStyle;rounded=0;orthogonalLoop=1;jettySize=auto;html=1;" edge="1" parent="1" source="RqdF9hzzgFcd3M00oREZ-21" target="RqdF9hzzgFcd3M00oREZ-24">
          <mxGeometry relative="1" as="geometry" />
        </mxCell>
        <mxCell id="RqdF9hzzgFcd3M00oREZ-28" value="" style="edgeStyle=orthogonalEdgeStyle;rounded=0;orthogonalLoop=1;jettySize=auto;html=1;" edge="1" parent="1" source="RqdF9hzzgFcd3M00oREZ-21" target="RqdF9hzzgFcd3M00oREZ-24">
          <mxGeometry relative="1" as="geometry" />
        </mxCell>
        <mxCell id="RqdF9hzzgFcd3M00oREZ-29" value="" style="edgeStyle=orthogonalEdgeStyle;rounded=0;orthogonalLoop=1;jettySize=auto;html=1;entryX=0.5;entryY=0;entryDx=0;entryDy=0;" edge="1" parent="1" source="RqdF9hzzgFcd3M00oREZ-21" target="RqdF9hzzgFcd3M00oREZ-30">
          <mxGeometry relative="1" as="geometry" />
        </mxCell>
        <mxCell id="RqdF9hzzgFcd3M00oREZ-32" value="" style="edgeStyle=orthogonalEdgeStyle;rounded=0;orthogonalLoop=1;jettySize=auto;html=1;entryX=0.5;entryY=0;entryDx=0;entryDy=0;" edge="1" parent="1" source="RqdF9hzzgFcd3M00oREZ-21" target="RqdF9hzzgFcd3M00oREZ-31">
          <mxGeometry relative="1" as="geometry">
            <mxPoint x="545" y="290" as="targetPoint" />
            <Array as="points">
              <mxPoint x="450" y="280" />
              <mxPoint x="545" y="280" />
            </Array>
          </mxGeometry>
        </mxCell>
        <mxCell id="RqdF9hzzgFcd3M00oREZ-21" value="&lt;b&gt;Conv+BN+ReLU&lt;/b&gt;" style="rounded=1;whiteSpace=wrap;html=1;fillColor=#dae8fc;strokeColor=#6c8ebf;" vertex="1" parent="1">
          <mxGeometry x="390" y="240" width="120" height="20" as="geometry" />
        </mxCell>
        <mxCell id="RqdF9hzzgFcd3M00oREZ-22" value="&lt;b&gt;Part1&lt;/b&gt;" style="rounded=1;whiteSpace=wrap;html=1;fillColor=#dae8fc;strokeColor=#6c8ebf;" vertex="1" parent="1">
          <mxGeometry x="320" y="300" width="50" height="25" as="geometry" />
        </mxCell>
        <mxCell id="RqdF9hzzgFcd3M00oREZ-24" value="&lt;b&gt;Part2&lt;/b&gt;" style="rounded=1;whiteSpace=wrap;html=1;fillColor=#dae8fc;strokeColor=#6c8ebf;" vertex="1" parent="1">
          <mxGeometry x="384" y="300" width="50" height="25" as="geometry" />
        </mxCell>
        <mxCell id="RqdF9hzzgFcd3M00oREZ-30" value="&lt;b&gt;Part3&lt;/b&gt;" style="rounded=1;whiteSpace=wrap;html=1;fillColor=#dae8fc;strokeColor=#6c8ebf;" vertex="1" parent="1">
          <mxGeometry x="450" y="300" width="50" height="25" as="geometry" />
        </mxCell>
        <mxCell id="RqdF9hzzgFcd3M00oREZ-31" value="&lt;b&gt;Part4&lt;/b&gt;" style="rounded=1;whiteSpace=wrap;html=1;fillColor=#dae8fc;strokeColor=#6c8ebf;" vertex="1" parent="1">
          <mxGeometry x="520" y="300" width="50" height="25" as="geometry" />
        </mxCell>
        <mxCell id="RqdF9hzzgFcd3M00oREZ-33" value="&lt;b&gt;&lt;font style=&quot;font-size: 8px;&quot;&gt;Conv&lt;/font&gt;&lt;/b&gt;" style="rounded=1;whiteSpace=wrap;html=1;fillColor=#dae8fc;strokeColor=#6c8ebf;fontSize=10;align=center;" vertex="1" parent="1">
          <mxGeometry x="300" y="342.5" width="25" height="15" as="geometry" />
        </mxCell>
        <mxCell id="RqdF9hzzgFcd3M00oREZ-36" value="" style="edgeStyle=orthogonalEdgeStyle;rounded=0;orthogonalLoop=1;jettySize=auto;html=1;" edge="1" parent="1" source="RqdF9hzzgFcd3M00oREZ-34" target="RqdF9hzzgFcd3M00oREZ-33">
          <mxGeometry relative="1" as="geometry">
            <Array as="points">
              <mxPoint x="350" y="350" />
              <mxPoint x="350" y="350" />
            </Array>
          </mxGeometry>
        </mxCell>
        <mxCell id="RqdF9hzzgFcd3M00oREZ-34" value="&lt;b&gt;+&lt;/b&gt;" style="ellipse;whiteSpace=wrap;html=1;aspect=fixed;fillColor=#dae8fc;strokeColor=#6c8ebf;" vertex="1" parent="1">
          <mxGeometry x="340" y="340" width="20" height="20" as="geometry" />
        </mxCell>
        <mxCell id="RqdF9hzzgFcd3M00oREZ-49" value="" style="edgeStyle=orthogonalEdgeStyle;rounded=0;orthogonalLoop=1;jettySize=auto;html=1;" edge="1" parent="1">
          <mxGeometry relative="1" as="geometry">
            <mxPoint x="431.0001250007813" y="351.30000000000007" as="sourcePoint" />
            <mxPoint x="405" y="351.26666666666665" as="targetPoint" />
          </mxGeometry>
        </mxCell>
        <mxCell id="RqdF9hzzgFcd3M00oREZ-52" value="&lt;b&gt;+&lt;/b&gt;" style="ellipse;whiteSpace=wrap;html=1;aspect=fixed;fillColor=#dae8fc;strokeColor=#6c8ebf;" vertex="1" parent="1">
          <mxGeometry x="422" y="341.25" width="20" height="20" as="geometry" />
        </mxCell>
        <mxCell id="RqdF9hzzgFcd3M00oREZ-55" value="" style="edgeStyle=orthogonalEdgeStyle;rounded=0;orthogonalLoop=1;jettySize=auto;html=1;" edge="1" parent="1" source="RqdF9hzzgFcd3M00oREZ-53" target="RqdF9hzzgFcd3M00oREZ-52">
          <mxGeometry relative="1" as="geometry">
            <Array as="points">
              <mxPoint x="460" y="350" />
              <mxPoint x="460" y="351" />
            </Array>
          </mxGeometry>
        </mxCell>
        <mxCell id="RqdF9hzzgFcd3M00oREZ-53" value="&lt;b&gt;&lt;font style=&quot;font-size: 8px;&quot;&gt;Conv&lt;/font&gt;&lt;/b&gt;" style="rounded=1;whiteSpace=wrap;html=1;fillColor=#dae8fc;strokeColor=#6c8ebf;" vertex="1" parent="1">
          <mxGeometry x="460" y="343.75" width="25" height="15" as="geometry" />
        </mxCell>
        <mxCell id="RqdF9hzzgFcd3M00oREZ-58" value="" style="curved=1;endArrow=classic;html=1;rounded=0;exitX=0.427;exitY=1.044;exitDx=0;exitDy=0;exitPerimeter=0;" edge="1" parent="1" source="RqdF9hzzgFcd3M00oREZ-22">
          <mxGeometry width="50" height="50" relative="1" as="geometry">
            <mxPoint x="390" y="370" as="sourcePoint" />
            <mxPoint x="367" y="340" as="targetPoint" />
            <Array as="points">
              <mxPoint x="360" y="330" />
            </Array>
          </mxGeometry>
        </mxCell>
        <mxCell id="RqdF9hzzgFcd3M00oREZ-60" value="" style="curved=1;endArrow=classic;html=1;rounded=0;exitX=0.5;exitY=1;exitDx=0;exitDy=0;entryX=0.5;entryY=0;entryDx=0;entryDy=0;" edge="1" parent="1" source="RqdF9hzzgFcd3M00oREZ-24" target="RqdF9hzzgFcd3M00oREZ-52">
          <mxGeometry width="50" height="50" relative="1" as="geometry">
            <mxPoint x="351" y="336" as="sourcePoint" />
            <mxPoint x="377" y="350" as="targetPoint" />
            <Array as="points">
              <mxPoint x="430" y="330" />
            </Array>
          </mxGeometry>
        </mxCell>
        <mxCell id="RqdF9hzzgFcd3M00oREZ-65" value="" style="edgeStyle=orthogonalEdgeStyle;rounded=0;orthogonalLoop=1;jettySize=auto;html=1;" edge="1" parent="1" source="RqdF9hzzgFcd3M00oREZ-64" target="RqdF9hzzgFcd3M00oREZ-34">
          <mxGeometry relative="1" as="geometry" />
        </mxCell>
        <mxCell id="RqdF9hzzgFcd3M00oREZ-64" value="&lt;b&gt;&lt;font style=&quot;font-size: 8px;&quot;&gt;Conv&lt;/font&gt;&lt;/b&gt;" style="rounded=1;whiteSpace=wrap;html=1;fillColor=#dae8fc;strokeColor=#6c8ebf;fontSize=10;align=center;" vertex="1" parent="1">
          <mxGeometry x="380" y="342.5" width="25" height="15" as="geometry" />
        </mxCell>
        <mxCell id="RqdF9hzzgFcd3M00oREZ-69" value="" style="edgeStyle=orthogonalEdgeStyle;rounded=0;orthogonalLoop=1;jettySize=auto;html=1;entryX=1;entryY=0.5;entryDx=0;entryDy=0;" edge="1" parent="1" source="RqdF9hzzgFcd3M00oREZ-68" target="RqdF9hzzgFcd3M00oREZ-53">
          <mxGeometry relative="1" as="geometry">
            <mxPoint x="490" y="350" as="targetPoint" />
          </mxGeometry>
        </mxCell>
        <mxCell id="RqdF9hzzgFcd3M00oREZ-68" value="&lt;b&gt;+&lt;/b&gt;" style="ellipse;whiteSpace=wrap;html=1;aspect=fixed;fillColor=#dae8fc;strokeColor=#6c8ebf;" vertex="1" parent="1">
          <mxGeometry x="505" y="341.25" width="20" height="20" as="geometry" />
        </mxCell>
        <mxCell id="RqdF9hzzgFcd3M00oREZ-71" value="" style="edgeStyle=orthogonalEdgeStyle;rounded=0;orthogonalLoop=1;jettySize=auto;html=1;" edge="1" parent="1" source="RqdF9hzzgFcd3M00oREZ-70" target="RqdF9hzzgFcd3M00oREZ-68">
          <mxGeometry relative="1" as="geometry" />
        </mxCell>
        <mxCell id="RqdF9hzzgFcd3M00oREZ-70" value="&lt;b&gt;&lt;font style=&quot;font-size: 8px;&quot;&gt;Conv&lt;/font&gt;&lt;/b&gt;" style="rounded=1;whiteSpace=wrap;html=1;fillColor=#dae8fc;strokeColor=#6c8ebf;" vertex="1" parent="1">
          <mxGeometry x="545" y="343.75" width="25" height="15" as="geometry" />
        </mxCell>
        <mxCell id="RqdF9hzzgFcd3M00oREZ-72" value="" style="curved=1;endArrow=classic;html=1;rounded=0;exitX=0.5;exitY=1;exitDx=0;exitDy=0;entryX=0.5;entryY=0;entryDx=0;entryDy=0;" edge="1" parent="1" source="RqdF9hzzgFcd3M00oREZ-30" target="RqdF9hzzgFcd3M00oREZ-68">
          <mxGeometry width="50" height="50" relative="1" as="geometry">
            <mxPoint x="419" y="335" as="sourcePoint" />
            <mxPoint x="442" y="351" as="targetPoint" />
            <Array as="points">
              <mxPoint x="510" y="330" />
            </Array>
          </mxGeometry>
        </mxCell>
        <mxCell id="RqdF9hzzgFcd3M00oREZ-73" value="" style="curved=1;endArrow=classic;html=1;rounded=0;exitX=0.5;exitY=1;exitDx=0;exitDy=0;entryX=1;entryY=0.5;entryDx=0;entryDy=0;" edge="1" parent="1" source="RqdF9hzzgFcd3M00oREZ-31" target="RqdF9hzzgFcd3M00oREZ-70">
          <mxGeometry width="50" height="50" relative="1" as="geometry">
            <mxPoint x="485" y="335" as="sourcePoint" />
            <mxPoint x="525" y="351" as="targetPoint" />
            <Array as="points">
              <mxPoint x="610" y="330" />
            </Array>
          </mxGeometry>
        </mxCell>
        <mxCell id="RqdF9hzzgFcd3M00oREZ-74" value="" style="rounded=0;whiteSpace=wrap;html=1;fillColor=#004C99;strokeColor=#0066CC;" vertex="1" parent="1">
          <mxGeometry x="355" y="370" width="15" height="15" as="geometry" />
        </mxCell>
        <mxCell id="RqdF9hzzgFcd3M00oREZ-75" value="" style="rounded=0;whiteSpace=wrap;html=1;fillColor=#007FFF;strokeColor=#0066CC;" vertex="1" parent="1">
          <mxGeometry x="370" y="370" width="15" height="15" as="geometry" />
        </mxCell>
        <mxCell id="RqdF9hzzgFcd3M00oREZ-76" value="" style="rounded=0;whiteSpace=wrap;html=1;fillColor=#66B2FF;strokeColor=#0066CC;" vertex="1" parent="1">
          <mxGeometry x="385" y="370" width="15" height="15" as="geometry" />
        </mxCell>
        <mxCell id="RqdF9hzzgFcd3M00oREZ-77" value="" style="rounded=0;whiteSpace=wrap;html=1;strokeColor=#0066CC;fillColor=#CCE5FF;" vertex="1" parent="1">
          <mxGeometry x="399" y="370" width="15" height="15" as="geometry" />
        </mxCell>
        <mxCell id="RqdF9hzzgFcd3M00oREZ-79" value="" style="curved=1;endArrow=classic;html=1;rounded=0;exitX=0.5;exitY=1;exitDx=0;exitDy=0;entryX=0.5;entryY=0;entryDx=0;entryDy=0;strokeColor=#004C99;" edge="1" parent="1" source="RqdF9hzzgFcd3M00oREZ-33" target="RqdF9hzzgFcd3M00oREZ-74">
          <mxGeometry width="50" height="50" relative="1" as="geometry">
            <mxPoint x="330" y="410" as="sourcePoint" />
            <mxPoint x="380" y="360" as="targetPoint" />
            <Array as="points">
              <mxPoint x="350" y="360" />
            </Array>
          </mxGeometry>
        </mxCell>
        <mxCell id="RqdF9hzzgFcd3M00oREZ-80" value="" style="curved=1;endArrow=classic;html=1;rounded=0;exitX=0.5;exitY=1;exitDx=0;exitDy=0;entryX=0.5;entryY=0;entryDx=0;entryDy=0;strokeColor=#007FFF;" edge="1" parent="1" source="RqdF9hzzgFcd3M00oREZ-64" target="RqdF9hzzgFcd3M00oREZ-75">
          <mxGeometry width="50" height="50" relative="1" as="geometry">
            <mxPoint x="330" y="410" as="sourcePoint" />
            <mxPoint x="380" y="360" as="targetPoint" />
            <Array as="points">
              <mxPoint x="380" y="360" />
            </Array>
          </mxGeometry>
        </mxCell>
        <mxCell id="RqdF9hzzgFcd3M00oREZ-81" value="" style="curved=1;endArrow=classic;html=1;rounded=0;exitX=0.5;exitY=1;exitDx=0;exitDy=0;entryX=0.5;entryY=0;entryDx=0;entryDy=0;strokeColor=#66B2FF;" edge="1" parent="1" source="RqdF9hzzgFcd3M00oREZ-53" target="RqdF9hzzgFcd3M00oREZ-76">
          <mxGeometry width="50" height="50" relative="1" as="geometry">
            <mxPoint x="330" y="410" as="sourcePoint" />
            <mxPoint x="380" y="360" as="targetPoint" />
            <Array as="points">
              <mxPoint x="410" y="359" />
            </Array>
          </mxGeometry>
        </mxCell>
        <mxCell id="RqdF9hzzgFcd3M00oREZ-82" value="&lt;font style=&quot;font-size: 8px;&quot;&gt;&lt;b style=&quot;&quot;&gt;C*H*W&lt;/b&gt;&lt;/font&gt;" style="rounded=0;whiteSpace=wrap;html=1;opacity=0;fontColor=#0066CC;" vertex="1" parent="1">
          <mxGeometry x="410" y="365" width="40" height="30" as="geometry" />
        </mxCell>
        <mxCell id="RqdF9hzzgFcd3M00oREZ-83" value="" style="curved=1;endArrow=classic;html=1;rounded=0;exitX=0.5;exitY=1;exitDx=0;exitDy=0;entryX=0.5;entryY=0;entryDx=0;entryDy=0;strokeColor=#CCE5FF;" edge="1" parent="1" source="RqdF9hzzgFcd3M00oREZ-70" target="RqdF9hzzgFcd3M00oREZ-77">
          <mxGeometry width="50" height="50" relative="1" as="geometry">
            <mxPoint x="330" y="410" as="sourcePoint" />
            <mxPoint x="380" y="360" as="targetPoint" />
            <Array as="points">
              <mxPoint x="430" y="360" />
            </Array>
          </mxGeometry>
        </mxCell>
        <mxCell id="RqdF9hzzgFcd3M00oREZ-84" value="&lt;b&gt;+&lt;/b&gt;" style="ellipse;whiteSpace=wrap;html=1;aspect=fixed;fillColor=#dae8fc;strokeColor=#6c8ebf;" vertex="1" parent="1">
          <mxGeometry x="450" y="385" width="20" height="20" as="geometry" />
        </mxCell>
        <mxCell id="RqdF9hzzgFcd3M00oREZ-86" value="" style="endArrow=classic;html=1;rounded=0;entryX=0;entryY=0.5;entryDx=0;entryDy=0;exitX=1;exitY=1;exitDx=0;exitDy=0;" edge="1" parent="1">
          <mxGeometry width="50" height="50" relative="1" as="geometry">
            <mxPoint x="385" y="385" as="sourcePoint" />
            <mxPoint x="450" y="395" as="targetPoint" />
            <Array as="points">
              <mxPoint x="385" y="395" />
            </Array>
          </mxGeometry>
        </mxCell>
        <mxCell id="RqdF9hzzgFcd3M00oREZ-87" value="" style="endArrow=classic;html=1;rounded=0;" edge="1" parent="1">
          <mxGeometry width="50" height="50" relative="1" as="geometry">
            <mxPoint x="510" y="395" as="sourcePoint" />
            <mxPoint x="471" y="394.65999999999997" as="targetPoint" />
          </mxGeometry>
        </mxCell>
        <mxCell id="RqdF9hzzgFcd3M00oREZ-89" value="&lt;b&gt;&lt;font style=&quot;font-size: 10px;&quot;&gt;反方向输出&lt;/font&gt;&lt;/b&gt;" style="rounded=1;whiteSpace=wrap;html=1;opacity=0;" vertex="1" parent="1">
          <mxGeometry x="499" y="380" width="71" height="30" as="geometry" />
        </mxCell>
        <mxCell id="RqdF9hzzgFcd3M00oREZ-91" value="&lt;b&gt;&lt;font style=&quot;font-size: 16px;&quot;&gt;决策模块&lt;/font&gt;&lt;/b&gt;&lt;div&gt;&lt;b&gt;&lt;font style=&quot;font-size: 16px;&quot;&gt;&lt;br&gt;&lt;/font&gt;&lt;/b&gt;&lt;/div&gt;&lt;div&gt;&lt;b&gt;&lt;font style=&quot;font-size: 16px;&quot;&gt;&lt;br&gt;&lt;/font&gt;&lt;/b&gt;&lt;/div&gt;&lt;div&gt;&lt;b&gt;&lt;font style=&quot;font-size: 16px;&quot;&gt;&lt;br&gt;&lt;/font&gt;&lt;/b&gt;&lt;/div&gt;&lt;div&gt;&lt;b&gt;&lt;font style=&quot;font-size: 16px;&quot;&gt;&lt;br&gt;&lt;/font&gt;&lt;/b&gt;&lt;/div&gt;&lt;div&gt;&lt;b&gt;&lt;font style=&quot;font-size: 16px;&quot;&gt;&lt;br&gt;&lt;/font&gt;&lt;/b&gt;&lt;/div&gt;&lt;div&gt;&lt;b&gt;&lt;font style=&quot;font-size: 16px;&quot;&gt;&lt;br&gt;&lt;/font&gt;&lt;/b&gt;&lt;/div&gt;&lt;div&gt;&lt;b&gt;&lt;font style=&quot;font-size: 16px;&quot;&gt;&lt;br&gt;&lt;/font&gt;&lt;/b&gt;&lt;/div&gt;&lt;div&gt;&lt;b&gt;&lt;font style=&quot;font-size: 16px;&quot;&gt;&lt;br&gt;&lt;/font&gt;&lt;/b&gt;&lt;/div&gt;&lt;div&gt;&lt;b&gt;&lt;font style=&quot;font-size: 16px;&quot;&gt;&lt;br&gt;&lt;/font&gt;&lt;/b&gt;&lt;/div&gt;" style="rounded=1;whiteSpace=wrap;html=1;strokeColor=#0066CC;" vertex="1" parent="1">
          <mxGeometry x="640" y="210" width="160" height="200" as="geometry" />
        </mxCell>
        <mxCell id="RqdF9hzzgFcd3M00oREZ-90" value="" style="html=1;shadow=0;dashed=0;align=center;verticalAlign=middle;shape=mxgraph.arrows2.arrow;dy=0.51;dx=31.67;notch=15;strokeColor=#0066CC;" vertex="1" parent="1">
          <mxGeometry x="580" y="297.5" width="90" height="30" as="geometry" />
        </mxCell>
        <mxCell id="RqdF9hzzgFcd3M00oREZ-92" value="&lt;b&gt;VB-NPA 得分&lt;/b&gt;" style="rounded=1;whiteSpace=wrap;html=1;fillColor=#dae8fc;strokeColor=#6c8ebf;" vertex="1" parent="1">
          <mxGeometry x="650" y="240" width="80" height="20" as="geometry" />
        </mxCell>
        <mxCell id="RqdF9hzzgFcd3M00oREZ-106" value="" style="edgeStyle=orthogonalEdgeStyle;rounded=0;orthogonalLoop=1;jettySize=auto;html=1;" edge="1" parent="1" source="RqdF9hzzgFcd3M00oREZ-94" target="RqdF9hzzgFcd3M00oREZ-103">
          <mxGeometry relative="1" as="geometry" />
        </mxCell>
        <mxCell id="RqdF9hzzgFcd3M00oREZ-94" value="&lt;b&gt;&lt;font style=&quot;font-size: 24px;&quot;&gt;+&lt;/font&gt;&lt;/b&gt;" style="ellipse;whiteSpace=wrap;html=1;aspect=fixed;fillColor=#dae8fc;strokeColor=#6c8ebf;" vertex="1" parent="1">
          <mxGeometry x="690" y="275" width="35" height="35" as="geometry" />
        </mxCell>
        <mxCell id="RqdF9hzzgFcd3M00oREZ-97" value="" style="html=1;shadow=0;dashed=0;align=center;verticalAlign=middle;shape=mxgraph.arrows2.uTurnArrow;dy=3.95;arrowHead=26.74;dx2=19;rotation=-180;fillColor=#FFFFFF;strokeColor=#0066CC;opacity=50;" vertex="1" parent="1">
          <mxGeometry x="734" y="245" width="39.83" height="62" as="geometry" />
        </mxCell>
        <mxCell id="RqdF9hzzgFcd3M00oREZ-98" value="&lt;b&gt;&lt;font&gt;仿射变换&lt;/font&gt;&lt;/b&gt;" style="rounded=1;whiteSpace=wrap;html=1;opacity=0;" vertex="1" parent="1">
          <mxGeometry x="772.83" y="235" width="16" height="72" as="geometry" />
        </mxCell>
        <mxCell id="RqdF9hzzgFcd3M00oREZ-103" value="&lt;b&gt;Preds&lt;/b&gt;" style="rounded=1;whiteSpace=wrap;html=1;fillColor=#dae8fc;strokeColor=#6c8ebf;" vertex="1" parent="1">
          <mxGeometry x="682.5" y="336.25" width="50" height="25" as="geometry" />
        </mxCell>
        <mxCell id="RqdF9hzzgFcd3M00oREZ-107" value="&lt;b&gt;Labels&lt;/b&gt;" style="rounded=1;whiteSpace=wrap;html=1;fillColor=#dae8fc;strokeColor=#6c8ebf;" vertex="1" parent="1">
          <mxGeometry x="740" y="336.25" width="50" height="25" as="geometry" />
        </mxCell>
        <mxCell id="RqdF9hzzgFcd3M00oREZ-108" value="" style="curved=1;endArrow=classic;html=1;rounded=0;dashed=1;" edge="1" parent="1">
          <mxGeometry width="50" height="50" relative="1" as="geometry">
            <mxPoint x="720" y="361.25" as="sourcePoint" />
            <mxPoint x="760" y="361.25" as="targetPoint" />
            <Array as="points">
              <mxPoint x="730" y="381.25" />
              <mxPoint x="750" y="381.25" />
            </Array>
          </mxGeometry>
        </mxCell>
        <mxCell id="RqdF9hzzgFcd3M00oREZ-109" value="" style="curved=1;endArrow=classic;html=1;rounded=0;dashed=1;" edge="1" parent="1">
          <mxGeometry width="50" height="50" relative="1" as="geometry">
            <mxPoint x="760" y="336.25" as="sourcePoint" />
            <mxPoint x="720" y="336.25" as="targetPoint" />
            <Array as="points">
              <mxPoint x="750" y="316.25" />
              <mxPoint x="730" y="316.25" />
              <mxPoint x="720" y="336.25" />
            </Array>
          </mxGeometry>
        </mxCell>
        <mxCell id="RqdF9hzzgFcd3M00oREZ-111" value="&lt;b&gt;&lt;font&gt;Loss&lt;/font&gt;&lt;/b&gt;" style="rounded=1;whiteSpace=wrap;html=1;opacity=0;" vertex="1" parent="1">
          <mxGeometry x="749" y="311.75" width="51" height="32" as="geometry" />
        </mxCell>
        <mxCell id="RqdF9hzzgFcd3M00oREZ-112" value="&lt;b&gt;&lt;font style=&quot;font-size: 8px; color: rgb(0, 102, 204);&quot;&gt;Labels=OS-NPA 得分 - VB-NPA得分&lt;/font&gt;&lt;/b&gt;" style="rounded=1;whiteSpace=wrap;html=1;opacity=0;strokeColor=#0066CC;" vertex="1" parent="1">
          <mxGeometry x="650" y="385" width="140" height="25" as="geometry" />
        </mxCell>
      </root>
    </mxGraphModel>
  </diagram>
</mxfile>
